HIERARCHY
ROOT ZeroOut_JNT
{
  OFFSET 0 0 0
  CHANNELS 6 Xposition Yposition Zposition Zrotation Xrotation Yrotation
  JOINT SpineFinal_1_JNT
  {
    OFFSET 0 59.8141 -42.9993
    CHANNELS 6 Xposition Yposition Zposition Zrotation Xrotation Yrotation
    JOINT l_legIKClavicle_Root_JNT
    {
      OFFSET -0.323145 -1.55994 9.59625
      CHANNELS 6 Xposition Yposition Zposition Zrotation Xrotation Yrotation
      JOINT l_legBlendRoot_JNT
      {
        OFFSET 16.1374 0 0
        CHANNELS 6 Xposition Yposition Zposition Zrotation Xrotation Yrotation
        JOINT l_legBlendMiddle_JNT
        {
          OFFSET 27.0969 0 0
          CHANNELS 6 Xposition Yposition Zposition Zrotation Xrotation Yrotation
          JOINT l_legBlendEnd_JNT
          {
            OFFSET 24.8414 0 0
            CHANNELS 6 Xposition Yposition Zposition Zrotation Xrotation Yrotation
            JOINT l_legBlendTip_JNT
            {
              OFFSET 6.77858 0 0
              CHANNELS 6 Xposition Yposition Zposition Zrotation Xrotation Yrotation
              End Site
              {
                OFFSET 0 0 0
              }
            }
          }
        }
      }
    }
    JOINT SpineFinal_2_JNT
    {
      OFFSET -19.5366 0.0587492 -0.00256357
      CHANNELS 6 Xposition Yposition Zposition Zrotation Xrotation Yrotation
      JOINT SpineFinal_3_JNT
      {
        OFFSET -19.4679 1.47333 -0.00136182
        CHANNELS 6 Xposition Yposition Zposition Zrotation Xrotation Yrotation
        JOINT SpineFinal_4_JNT
        {
          OFFSET -18.2335 5.20609 0
          CHANNELS 6 Xposition Yposition Zposition Zrotation Xrotation Yrotation
          JOINT SpineFinal_5_JNT
          {
            OFFSET -17.3574 8.01768 -1.82773e-005
            CHANNELS 6 Xposition Yposition Zposition Zrotation Xrotation Yrotation
            JOINT SpineFinal_6_JNT
            {
              OFFSET -19.144 8.35871 0
              CHANNELS 6 Xposition Yposition Zposition Zrotation Xrotation Yrotation
              JOINT SpineFinal_7_JNT
              {
                OFFSET -16.3943 7.24542 0
                CHANNELS 6 Xposition Yposition Zposition Zrotation Xrotation Yrotation
                JOINT SpineFinal_8_JNT
                {
                  OFFSET -19.3877 2.40349 0
                  CHANNELS 6 Xposition Yposition Zposition Zrotation Xrotation Yrotation
                  JOINT head_JNT
                  {
                    OFFSET -13.796 -11.6756 0
                    CHANNELS 6 Xposition Yposition Zposition Zrotation Xrotation Yrotation
                    JOINT l_hornRoot_JNT
                    {
                      OFFSET -15.825 14.8229 15.3879
                      CHANNELS 6 Xposition Yposition Zposition Zrotation Xrotation Yrotation
                      JOINT l_hornMid_JNT
                      {
                        OFFSET 6.55118 0 0
                        CHANNELS 6 Xposition Yposition Zposition Zrotation Xrotation Yrotation
                        JOINT l_hornEnd_JNT
                        {
                          OFFSET 6.73503 0 0
                          CHANNELS 6 Xposition Yposition Zposition Zrotation Xrotation Yrotation
                          End Site
                          {
                            OFFSET 0 0 0
                          }
                        }
                      }
                    }
                    JOINT headJend_JNT
                    {
                      OFFSET 1.34858 -27.5886 0
                      CHANNELS 6 Xposition Yposition Zposition Zrotation Xrotation Yrotation
                      End Site
                      {
                        OFFSET 0 0 0
                      }
                    }
                    JOINT r_hornRoot_JNT
                    {
                      OFFSET -15.825 14.8229 -15.3879
                      CHANNELS 6 Xposition Yposition Zposition Zrotation Xrotation Yrotation
                      JOINT r_hornMid_JNT
                      {
                        OFFSET -2.40814 5.46468 -2.69372
                        CHANNELS 6 Xposition Yposition Zposition Zrotation Xrotation Yrotation
                        JOINT r_hornEnd_JNT
                        {
                          OFFSET -2.40922 6.0083 -1.85921
                          CHANNELS 6 Xposition Yposition Zposition Zrotation Xrotation Yrotation
                          End Site
                          {
                            OFFSET 0 0 0
                          }
                        }
                      }
                    }
                    JOINT m_upLip_JNT
                    {
                      OFFSET 4.72477 -9.87974 0
                      CHANNELS 6 Xposition Yposition Zposition Zrotation Xrotation Yrotation
                      JOINT l_lipUpRoot_JNT
                      {
                        OFFSET 2.68891 -0.690234 4.02874
                        CHANNELS 6 Xposition Yposition Zposition Zrotation Xrotation Yrotation
                        JOINT l_lipUpEnd_JNT
                        {
                          OFFSET 0 0 -14.9226
                          CHANNELS 6 Xposition Yposition Zposition Zrotation Xrotation Yrotation
                          End Site
                          {
                            OFFSET 0 0 0
                          }
                        }
                      }
                      JOINT m_upLipRoot_JNT
                      {
                        OFFSET 0 0 3.94939
                        CHANNELS 6 Xposition Yposition Zposition Zrotation Xrotation Yrotation
                        JOINT m_upLipEnd_JNT
                        {
                          OFFSET 0 0 15.0019
                          CHANNELS 6 Xposition Yposition Zposition Zrotation Xrotation Yrotation
                          End Site
                          {
                            OFFSET 0 0 0
                          }
                        }
                      }
                      JOINT r_lipUpRoot_JNT
                      {
                        OFFSET -2.689 -0.690236 4.02875
                        CHANNELS 6 Xposition Yposition Zposition Zrotation Xrotation Yrotation
                        JOINT r_lipUpEnd_JNT
                        {
                          OFFSET 9.35075e-005 -0.000392738 14.9226
                          CHANNELS 6 Xposition Yposition Zposition Zrotation Xrotation Yrotation
                          End Site
                          {
                            OFFSET 0 0 0
                          }
                        }
                      }
                    }
                    JOINT m_DnLip_JNT
                    {
                      OFFSET 6.0207 -9.81639 0
                      CHANNELS 6 Xposition Yposition Zposition Zrotation Xrotation Yrotation
                      JOINT l_lipDn_JNT
                      {
                        OFFSET 2.71301 -0.162748 3.99146
                        CHANNELS 6 Xposition Yposition Zposition Zrotation Xrotation Yrotation
                        JOINT l_lipEnd_JNT
                        {
                          OFFSET 0 0 -14.9599
                          CHANNELS 6 Xposition Yposition Zposition Zrotation Xrotation Yrotation
                          End Site
                          {
                            OFFSET 0 0 0
                          }
                        }
                      }
                      JOINT m_dnLip_JNT
                      {
                        OFFSET 0 -0.0431035 3.99141
                        CHANNELS 6 Xposition Yposition Zposition Zrotation Xrotation Yrotation
                        JOINT m_dnLipEnd_JNT
                        {
                          OFFSET 0 0 14.9599
                          CHANNELS 6 Xposition Yposition Zposition Zrotation Xrotation Yrotation
                          End Site
                          {
                            OFFSET 0 0 0
                          }
                        }
                      }
                      JOINT r_lipDn_JNT
                      {
                        OFFSET -2.71301 -0.162761 3.99141
                        CHANNELS 6 Xposition Yposition Zposition Zrotation Xrotation Yrotation
                        JOINT r_lipDnEnd_JNT
                        {
                          OFFSET 0 0 14.9599
                          CHANNELS 6 Xposition Yposition Zposition Zrotation Xrotation Yrotation
                          End Site
                          {
                            OFFSET 0 0 0
                          }
                        }
                      }
                    }
                    JOINT l_lid_JNT
                    {
                      OFFSET -7.85698 -6.72885 9.63956
                      CHANNELS 6 Xposition Yposition Zposition Zrotation Xrotation Yrotation
                      End Site
                      {
                        OFFSET 0 0 0
                      }
                    }
                    JOINT r_lid_JNT
                    {
                      OFFSET -7.85684 -6.72882 -9.63956
                      CHANNELS 6 Xposition Yposition Zposition Zrotation Xrotation Yrotation
                      End Site
                      {
                        OFFSET 0 0 0
                      }
                    }
                  }
                }
              }
            }
            JOINT l_FwClavicleRoot_JNT
            {
              OFFSET -0.15532 -4.55898 6.72563
              CHANNELS 6 Xposition Yposition Zposition Zrotation Xrotation Yrotation
              JOINT l_FwLegBlendRoot_JNT
              {
                OFFSET 21.051 0 0
                CHANNELS 6 Xposition Yposition Zposition Zrotation Xrotation Yrotation
                JOINT l_FwLegBlendMiddle_JNT
                {
                  OFFSET 33.1145 0 0
                  CHANNELS 6 Xposition Yposition Zposition Zrotation Xrotation Yrotation
                  JOINT l_FwLegBlendTip_JNT
                  {
                    OFFSET 29.9221 0 0
                    CHANNELS 6 Xposition Yposition Zposition Zrotation Xrotation Yrotation
                    JOINT l_FwLegBlendEnd_JNT
                    {
                      OFFSET 9.62649 0 0
                      CHANNELS 6 Xposition Yposition Zposition Zrotation Xrotation Yrotation
                      End Site
                      {
                        OFFSET 0 0 0
                      }
                    }
                  }
                }
              }
            }
            JOINT r_FwClavicleRoot_JNT
            {
              OFFSET -0.15532 -4.55898 -6.72563
              CHANNELS 6 Xposition Yposition Zposition Zrotation Xrotation Yrotation
              JOINT r_FwLegBlendRoot_JNT
              {
                OFFSET 1.1653 -12.7157 -16.7361
                CHANNELS 6 Xposition Yposition Zposition Zrotation Xrotation Yrotation
                JOINT r_FwLegBlendMiddle_JNT
                {
                  OFFSET 16.2308 -5.97551 28.2387
                  CHANNELS 6 Xposition Yposition Zposition Zrotation Xrotation Yrotation
                  JOINT r_FwLegBlendTip_JNT
                  {
                    OFFSET 26.7017 -9.19239 -9.89204
                    CHANNELS 6 Xposition Yposition Zposition Zrotation Xrotation Yrotation
                    JOINT r_FwLegBlendEnd_JNT
                    {
                      OFFSET 4.44874 -7.74942 3.58114
                      CHANNELS 6 Xposition Yposition Zposition Zrotation Xrotation Yrotation
                      End Site
                      {
                        OFFSET 0 0 0
                      }
                    }
                  }
                }
              }
            }
          }
        }
      }
    }
    JOINT r_legIKClavicle_Root_JNT
    {
      OFFSET -0.323145 -1.55994 -9.59625
      CHANNELS 6 Xposition Yposition Zposition Zrotation Xrotation Yrotation
      JOINT r_legBlendRoot_JNT
      {
        OFFSET 13.2848 -5.74129 -7.13912
        CHANNELS 6 Xposition Yposition Zposition Zrotation Xrotation Yrotation
        JOINT r_legBlendMiddle_JNT
        {
          OFFSET 14.815 16.9375 15.0957
          CHANNELS 6 Xposition Yposition Zposition Zrotation Xrotation Yrotation
          JOINT r_legBlendEnd_JNT
          {
            OFFSET 23.6904 -6.58016 -3.54465
            CHANNELS 6 Xposition Yposition Zposition Zrotation Xrotation Yrotation
            JOINT r_legBlendTip_JNT
            {
              OFFSET 1.47758 -6.16068 -2.41079
              CHANNELS 6 Xposition Yposition Zposition Zrotation Xrotation Yrotation
              End Site
              {
                OFFSET 0 0 0
              }
            }
          }
        }
      }
    }
    JOINT tailRoot_JNT
    {
      OFFSET 2.82533 14.5514 0
      CHANNELS 6 Xposition Yposition Zposition Zrotation Xrotation Yrotation
      JOINT tailMid_JNT
      {
        OFFSET 7.87756 0 0
        CHANNELS 6 Xposition Yposition Zposition Zrotation Xrotation Yrotation
        JOINT tailEnd_JNT
        {
          OFFSET 6.52588 0 0
          CHANNELS 6 Xposition Yposition Zposition Zrotation Xrotation Yrotation
          End Site
          {
            OFFSET 0 0 0
          }
        }
      }
    }
    JOINT l_shoulderBkRoot_JNT
    {
      OFFSET -9.30511 7.998 11.2048
      CHANNELS 6 Xposition Yposition Zposition Zrotation Xrotation Yrotation
      JOINT l_shoulderBkMid_JNT
      {
        OFFSET 0 0 0
        CHANNELS 6 Xposition Yposition Zposition Zrotation Xrotation Yrotation
        End Site
        {
          OFFSET 0 0 0
        }
      }
    }
    JOINT r_shoulderBkRoot_JNT
    {
      OFFSET -9.30514 7.99801 -11.2048
      CHANNELS 6 Xposition Yposition Zposition Zrotation Xrotation Yrotation
      JOINT r_shoulderBkMid_JNT
      {
        OFFSET 0 0 0
        CHANNELS 6 Xposition Yposition Zposition Zrotation Xrotation Yrotation
        End Site
        {
          OFFSET 0 0 0
        }
      }
    }
  }
}
MOTION
Frames:	3
Frame Time:	0.0416667
0 0 0 0 0 -0 9.9718e-017 64 -43 2.52271e-017 6.8505 90 -0.323145 -1.55994 9.59625 -26.4062 61.2999 -67.9538 16.1374 -6.32415e-007 1.68252e-006 -26.9057 10.3846 45.5378 27.0969 -7.10543e-015 -4.26326e-014 4.98513e-015 2.22778e-015 -54.0475 24.8414 3.55271e-015 3.55271e-014 6.99409e-015 9.41296e-016 -49.986 6.77858 -7.10543e-015 -1.42109e-014 -1.05236e-038 1.89576e-022 3.18055e-015 -19.5397 7.10543e-015 -3.20834e-015 0 0 -0 -19.4076 1.98539 -3.88578e-015 -5.84101 -2.26213e-031 -2.2414e-016 -18.5401 5.80111 5.88418e-015 -17.3747 -2.54444e-014 -1.16499e-014 -18.018 7.25644 -4.85917e-015 -21.9362 2.11868e-030 -7.88521e-015 -19.144 8.35871 -2.88325e-014 -23.5872 -8.4747e-030 -1.12214e-014 -16.3943 7.24542 1.55613e-014 -23.8429 6.36111e-015 -1.26869e-014 -19.3877 2.40349 -4.69349e-014 -7.06692 9.54166e-015 -1.2707e-014 -13.796 -11.6756 2.31438e-014 1.67134e-060 -5.6498e-030 1.69494e-029 -15.825 14.8229 15.3879 112.717 -2.35881 -24.301 6.55118 1.98952e-013 7.10543e-015 -7.71367e-009 -7.59931 2.05853 6.73503 5.68434e-014 -4.9738e-014 -1.59028e-015 0 -0 1.34858 -27.5886 -1.33918e-014 92.7985 1.31729e-014 -1.65353e-014 -15.825 14.8229 -15.3879 3.97569e-015 -2.22639e-014 -2.70347e-014 -2.40814 5.46468 -2.69372 -36.0976 -3.24524 -12.7174 -2.40922 6.0083 -1.85921 3.18055e-015 -3.18055e-015 -7.95139e-016 4.72477 -9.87974 5.55569e-015 92.7985 3.50417e-015 -90 2.68891 -0.690234 4.02874 180 7.01671e-015 -180 -4.44089e-016 -2.84217e-014 -14.9226 2.31315e-030 0 5.6498e-030 1.30029e-015 -2.84217e-014 3.94939 -9.95046e-030 1.89576e-022 -0 0 2.84217e-014 15.0019 1.34914e-030 0 -5.6498e-030 -2.689 -0.690236 4.02875 -9.95046e-030 1.89576e-022 -0 9.35075e-005 -0.000392738 14.9226 1.34914e-030 0 -5.6498e-030 6.0207 -9.81639 6.35085e-015 92.7985 3.50417e-015 -90 2.71301 -0.162748 3.99146 180 7.01671e-015 -180 -4.44089e-016 0 -14.9599 2.31315e-030 0 5.6498e-030 1.33097e-015 -0.0431035 3.99141 -9.95046e-030 1.89576e-022 -0 1.26218e-029 0 14.9599 1.34914e-030 0 -5.6498e-030 -2.71301 -0.162761 3.99141 -9.95046e-030 1.89576e-022 -0 -4.44089e-016 0 14.9599 1.34914e-030 0 -5.6498e-030 -7.85698 -6.72885 9.63956 34.106 19.9417 85.9622 -7.85684 -6.72882 -9.63956 -145.894 19.9417 85.9622 0.43207 -4.54112 6.72563 48.7642 26.2605 -112.654 21.051 -2.84217e-014 -2.13163e-014 71.3043 -61.7224 136.813 33.1145 8.3753e-007 -2.8019e-007 140.792 7.01671e-015 180 29.9221 1.42109e-014 7.10543e-015 41.1443 2.39513e-015 4.24131e-015 9.62649 2.13163e-014 3.55271e-015 29.859 -1.7467e-015 90 0.43207 -4.54112 -6.72563 -26.6436 9.37258 -17.9831 1.1653 -12.7157 -16.7361 71.3043 -61.7224 136.813 16.2308 -5.97551 28.2387 140.792 7.01671e-015 -180 26.7017 -9.19239 -9.89204 41.1443 -5.08889e-014 -3.81667e-014 4.44874 -7.74942 3.58114 29.859 -1.7467e-015 90 -0.323145 -1.55994 -9.59625 -62.7106 -9.24999 4.74057 13.2848 -5.74129 -7.13912 -26.9057 10.3846 45.5378 14.815 16.9375 15.0957 -2.65698e-014 -1.82882e-014 -54.0475 23.6904 -6.58016 -3.54465 5.66051e-014 4.49253e-014 -49.986 1.47758 -6.16068 -2.41079 3.97569e-016 -7.95139e-016 -8.54774e-015 2.82533 14.5514 2.3584e-015 4.99157 2.64834e-031 -5.22158e-015 7.87756 0 -4.64622e-015 19.1217 -1.67259e-015 7.66947e-016 6.52588 0 1.743e-015 -1.74098e-062 1.41245e-030 7.06225e-031 -9.30511 7.998 11.2048 -6.8505 -4.18474e-016 -90 0 0 0 4.66553e-033 0 -0 -9.30514 7.99801 -11.2048 173.149 4.18474e-016 -90 0 0 0 2.4957e-031 0 -0 
0 0 0 0 0 -0 -0.0928069 63.2777 -42.997 2.52271e-017 6.8505 90 -0.323145 -1.55994 9.59625 -26.4062 61.2999 -67.9538 16.1374 -6.13279e-007 1.68021e-006 -26.9057 10.3846 45.5378 27.0969 -1.06581e-014 -1.42109e-014 4.98513e-015 2.22778e-015 -54.0475 24.8414 1.77636e-014 4.26326e-014 6.99409e-015 9.41296e-016 -49.986 6.77858 -7.10543e-015 -1.42109e-014 -1.05236e-038 1.89576e-022 3.18055e-015 -19.4608 0.601651 -0.103331 -2.43919 1.23321 -0.480071 -19.5297 1.46329 0.0432646 -5.84101 -4.65902e-017 -3.47873e-016 -18.6265 5.27801 0.00186959 -17.3747 -2.56929e-014 -1.16786e-014 -17.5524 7.88343 -2.21818 -21.9362 -1.98785e-016 -7.95139e-015 -19.142 8.35065 0.00755651 -23.5872 -4.96962e-017 -1.11319e-014 -16.3943 7.24542 2.88658e-014 -23.8429 6.41081e-015 -1.25514e-014 -19.3877 2.40349 -4.21885e-014 -7.06692 9.39258e-015 -1.28216e-014 -13.796 -11.6756 2.53131e-014 -0.0316672 0.95365 1.13595 -15.825 14.8229 15.3879 112.717 -2.35881 -24.301 6.55118 1.13687e-013 1.95399e-014 -7.71367e-009 -7.59931 2.05853 6.73503 2.84217e-014 -4.9738e-014 1.59028e-015 0 3.18055e-015 1.34858 -27.5886 -1.33227e-014 92.7985 1.34055e-014 -1.66979e-014 -15.825 14.8229 -15.3879 -7.95139e-015 -3.37934e-015 8.29926e-015 -2.40814 5.46468 -2.69372 -36.0976 -3.24524 -12.7174 -2.40922 6.0083 -1.85921 3.18055e-015 0 -7.95139e-016 4.72477 -9.87974 -8.88178e-016 92.7985 3.50417e-015 -90 2.68891 -0.690234 4.02874 -180 7.01671e-015 -180 0 2.84217e-014 -14.9226 9.44227e-016 -3.97569e-016 -0 0 2.84217e-014 3.94939 3.72721e-017 0 -0 8.88178e-016 0 15.0019 -3.85145e-016 -3.97569e-016 -1.98785e-016 -2.689 -0.690236 4.02875 3.72721e-017 0 -0 9.35075e-005 -0.000392738 14.9226 -3.85145e-016 -3.97569e-016 -1.98785e-016 6.0207 -9.81639 -1.77636e-015 92.7985 3.50417e-015 -90 2.71301 -0.162748 3.99146 -180 7.01671e-015 -180 0 0 -14.9599 9.44227e-016 -3.97569e-016 -0 0 -0.0431035 3.99141 3.72721e-017 0 -0 0 0 14.9599 -3.85145e-016 -3.97569e-016 -1.98785e-016 -2.71301 -0.162761 3.99141 3.72721e-017 0 -0 -1.77636e-015 0 14.9599 -3.85145e-016 -3.97569e-016 -1.98785e-016 -7.85698 -6.72885 9.63956 34.106 19.9417 85.9622 -7.85684 -6.72882 -9.63956 -145.894 19.9417 85.9622 0.466495 -4.62584 7.38246 48.7642 26.2605 -112.654 21.051 1.70888e-008 -1.84899e-008 71.3043 -61.7224 136.813 33.1145 8.3753e-007 -2.8019e-007 140.792 7.01671e-015 180 29.9221 2.84217e-014 -1.06581e-014 41.1443 2.93207e-015 4.37326e-015 9.62649 1.77636e-014 7.10543e-015 29.859 -1.7467e-015 90 0.407528 -4.43056 -7.81771 -26.6436 9.37258 -17.9831 1.1653 -12.7157 -16.7361 71.3043 -61.7224 136.813 16.2308 -5.97551 28.2387 140.792 7.01671e-015 -180 26.7017 -9.19239 -9.89204 41.1443 -5.725e-014 -3.49861e-014 4.44874 -7.74942 3.58114 29.859 -1.7467e-015 90 -0.322289 -1.55282 -9.92861 -62.7106 -9.24999 4.74057 13.2848 -5.74129 -7.13912 -26.9057 10.3846 45.5378 14.815 16.9375 15.0957 -2.65698e-014 -1.82882e-014 -54.0475 23.6904 -6.58016 -3.54465 5.66051e-014 4.49253e-014 -49.986 1.47758 -6.16068 -2.41079 3.97569e-016 -7.95139e-016 -8.54774e-015 2.82533 14.5514 -1.33088e-014 4.99157 2.64834e-031 -5.22158e-015 7.87756 0 -7.04992e-015 19.1217 -1.67259e-015 7.66947e-016 6.52588 1.42109e-014 -1.79023e-015 -2.15608 -1.75304 4.52472 -9.30511 7.998 11.2048 -6.8505 -4.18474e-016 -90 0 0 0 4.66553e-033 0 -0 -9.30514 7.99801 -11.2048 173.149 4.18474e-016 -90 0 0 0 2.4957e-031 0 -0 
0 0 0 0 0 -0 -0.295545 61.0493 -42.9939 2.49375 6.87872 90.3461 -0.323145 -1.55994 9.59625 -26.4062 61.2999 -67.9538 16.1374 -5.74428e-007 1.67892e-006 -29.3698 9.00466 46.1806 27.0969 1.06581e-014 -7.10543e-015 5.2384e-015 2.5842e-015 -39.1036 24.8414 0 1.42109e-014 0.0981359 1.71518 -65.1422 6.77858 -7.10543e-015 -1.42109e-014 5.68727e-022 2.84364e-022 -0 -19.4009 1.42945 -0.136771 -6.08531 3.77528 -0.719388 -19.6415 0.815946 0.0193102 -1.56805 1.17317 0.229932 -18.7609 4.4323 -0.0425318 -16.837 -0.362549 -0.16832 -16.8627 8.66846 -4.41158 -25.3551 -0.018052 -0.39052 -19.1409 8.3028 0.0260351 -22.1432 -1.03926 1.75704 -16.3943 7.24542 3.73035e-014 -26.1478 -1.46669 -1.60022 -19.3877 2.40349 -6.03961e-014 -10.1005 2.69289 3.6205 -13.796 -11.6756 2.13163e-014 -0.168507 2.54001 3.03177 -15.825 14.8229 15.3879 112.717 -2.35881 -24.301 6.55118 1.13687e-013 2.13163e-014 -7.71367e-009 -7.59931 2.05853 6.73503 0 -4.9738e-014 -3.18055e-015 -7.95139e-016 -3.18055e-015 1.34858 -27.5886 -1.42109e-014 92.7985 1.16289e-014 -1.66979e-014 -15.825 14.8229 -15.3879 1.90833e-014 2.38542e-015 8.15017e-015 -2.40814 5.46468 -2.69372 -32.7866 -4.03584 -11.4878 -2.40922 6.0083 -1.85921 -6.36111e-015 7.95139e-016 7.95139e-016 4.72477 -9.87974 0 92.7985 3.50417e-015 -90 2.68891 -0.690234 4.02874 -180 7.01671e-015 -180 0 -2.84217e-014 -14.9226 -1.98785e-016 -1.59028e-015 -0 -3.55271e-015 2.84217e-014 3.94939 0 1.59028e-015 -0 -3.55271e-015 2.84217e-014 15.0019 -9.93923e-016 -1.59028e-015 -0 -2.689 -0.690236 4.02875 0 1.59028e-015 -0 9.35075e-005 -0.000392738 14.9226 -9.93923e-016 -1.59028e-015 -0 6.0207 -9.81639 -3.55271e-015 92.7985 3.50417e-015 -90 2.71301 -0.162748 3.99146 -180 7.01671e-015 -180 0 2.84217e-014 -14.9599 -1.98785e-016 -1.59028e-015 -0 0 -0.0431035 3.99141 0 1.59028e-015 -0 3.55271e-015 5.68434e-014 14.9599 -9.93923e-016 -1.59028e-015 -0 -2.71301 -0.162761 3.99141 0 1.59028e-015 -0 0 -2.84217e-014 14.9599 -9.93923e-016 -1.59028e-015 -0 -7.85698 -6.72885 9.63956 34.106 19.9417 85.9622 -7.85684 -6.72882 -9.63956 -145.894 19.9417 85.9622 0.516128 -4.71718 8.45841 49.7026 23.2704 -113.525 21.051 1.34272e-008 -9.77317e-008 66.065 -62.9299 134.082 33.1145 8.3753e-007 -2.8019e-007 141.397 7.01671e-015 180 29.9221 7.10543e-015 -1.42109e-014 42.327 -2.34508 2.3131 9.62649 1.77636e-014 1.06581e-014 29.859 -1.7467e-015 90 0.171636 -4.08369 -9.60118 -26.5326 11.4929 -12.9936 1.1653 -12.7157 -16.7361 102.103 -66.1534 167.564 16.2308 -5.97551 28.2387 140.811 -0.861512 -177.497 26.7017 -9.19239 -9.89204 31.1154 2.69939 -5.95539 4.44874 -7.74942 3.58114 29.859 -1.7467e-015 90 -0.317068 -1.50936 -10.4809 -62.4033 -7.85702 6.80578 13.2848 -5.74129 -7.13912 -24.0268 6.4921 43.7932 14.815 16.9375 15.0957 -3.45157 3.51045 -53.9417 23.6904 -6.58016 -3.54465 1.30555 4.40323 -48.5223 1.47758 -6.16068 -2.41079 -1.19271e-015 7.95139e-016 -1.54058e-015 2.82533 14.5514 -2.4869e-014 6.65819 4.63142 2.44594 7.87756 -3.55271e-014 -8.88178e-015 20.5957 2.5038 -2.99056 6.52588 3.55271e-014 -7.99361e-015 -5.13753 -4.58564 12.0996 -9.30511 7.998 11.2048 -6.8505 -4.18474e-016 -90 0 0 0 2.02886e-016 0 9.93923e-017 -9.30514 7.99801 -11.2048 173.149 4.18474e-016 -90 0 0 0 -1.04561e-016 0 9.93923e-017 
